<?xml version="1.0" encoding="utf-8"?>
<!-- Generator: Adobe Illustrator 19.0.0, SVG Export Plug-In . SVG Version: 6.00 Build 0)  -->
<!DOCTYPE svg PUBLIC "-//W3C//DTD SVG 1.1//EN" "http://www.w3.org/Graphics/SVG/1.1/DTD/svg11.dtd">
<svg version="1.1" id="Camada_8" xmlns="http://www.w3.org/2000/svg" xmlns:xlink="http://www.w3.org/1999/xlink" x="0px" y="0px"
	 viewBox="0 0 246 246" style="enable-background:new 0 0 246 246;" xml:space="preserve">
<style type="text/css">
	.st0{fill-rule:evenodd;clip-rule:evenodd;fill:url(#SVGID_1_);}
	.st1{fill-rule:evenodd;clip-rule:evenodd;fill:url(#SVGID_2_);}
	.st2{fill-rule:evenodd;clip-rule:evenodd;fill:url(#SVGID_3_);stroke:#000000;stroke-width:2.834600e-02;}
	.st3{fill-rule:evenodd;clip-rule:evenodd;fill:url(#SVGID_4_);stroke:#000000;stroke-width:2.834600e-02;}
	.st4{fill-rule:evenodd;clip-rule:evenodd;fill:url(#SVGID_5_);stroke:#000000;stroke-width:2.834600e-02;}
	.st5{fill-rule:evenodd;clip-rule:evenodd;fill:url(#SVGID_6_);stroke:#000000;stroke-width:2.834600e-02;}
	.st6{fill-rule:evenodd;clip-rule:evenodd;fill:url(#SVGID_7_);stroke:#000000;stroke-width:2.834600e-02;}
	.st7{fill-rule:evenodd;clip-rule:evenodd;fill:url(#SVGID_8_);stroke:#000000;stroke-width:2.834600e-02;}
	.st8{fill-rule:evenodd;clip-rule:evenodd;fill:url(#SVGID_9_);}
	.st9{fill-rule:evenodd;clip-rule:evenodd;fill:url(#SVGID_10_);}
	.st10{fill-rule:evenodd;clip-rule:evenodd;fill:none;stroke:#000000;stroke-width:0.1131;stroke-miterlimit:22.9256;}
	.st11{fill-rule:evenodd;clip-rule:evenodd;fill:#E6E6E6;}
	.st12{fill-rule:evenodd;clip-rule:evenodd;fill:url(#SVGID_11_);}
	.st13{fill-rule:evenodd;clip-rule:evenodd;fill:#E66E00;}
	.st14{fill:#27910D;}
	.st15{fill:#6699FF;}
</style>
<radialGradient id="SVGID_1_" cx="124.4844" cy="125.7851" r="9.8999" fx="119.4147" fy="125.7543" gradientTransform="matrix(-0.8911 0.4537 2.5823 5.0715 -18.9997 -568.6133)" gradientUnits="userSpaceOnUse">
	<stop  offset="0" style="stop-color:#000000"/>
	<stop  offset="0.1517" style="stop-color:#040404"/>
	<stop  offset="0.3105" style="stop-color:#101011"/>
	<stop  offset="0.4726" style="stop-color:#252526"/>
	<stop  offset="0.6359" style="stop-color:#414143"/>
	<stop  offset="0.7634" style="stop-color:#5D5D5F"/>
	<stop  offset="0.804" style="stop-color:#575759"/>
	<stop  offset="0.857" style="stop-color:#474749"/>
	<stop  offset="0.917" style="stop-color:#2D2D2E"/>
	<stop  offset="0.9815" style="stop-color:#080809"/>
	<stop  offset="0.9946" style="stop-color:#000000"/>
</radialGradient>
<path class="st0" d="M209.1,136.6c-0.3,1.6-0.6,13.6-0.6,13.6c-1.4-0.3-2.7-0.5-4.1-0.8c-5.8-1.1-12.6-14.9-16-20
	c-3.1-11.3-6.2-22.5-9.2-33.8c2.2,1.1,4.3,2.2,6.5,3.3c11.2,8.1,12.9,39.2,20.4,38.1C207.2,136.9,208.1,136.8,209.1,136.6z"/>
<radialGradient id="SVGID_2_" cx="52.8169" cy="125.7851" r="8.2001" fx="48.6176" fy="125.7596" gradientTransform="matrix(0.9392 0.3433 -1.9538 5.3452 248.9643 -564.6876)" gradientUnits="userSpaceOnUse">
	<stop  offset="0" style="stop-color:#000000"/>
	<stop  offset="0.1517" style="stop-color:#040404"/>
	<stop  offset="0.3105" style="stop-color:#101011"/>
	<stop  offset="0.4726" style="stop-color:#252526"/>
	<stop  offset="0.6359" style="stop-color:#414143"/>
	<stop  offset="0.7634" style="stop-color:#5D5D5F"/>
	<stop  offset="0.804" style="stop-color:#575759"/>
	<stop  offset="0.857" style="stop-color:#474749"/>
	<stop  offset="0.917" style="stop-color:#2D2D2E"/>
	<stop  offset="0.9815" style="stop-color:#080809"/>
	<stop  offset="0.9946" style="stop-color:#000000"/>
</radialGradient>
<path class="st1" d="M38.6,136.6c0.3,1.6,0.6,13.6,0.6,13.6c1.4-0.3,2.7-0.5,4.1-0.8c5.8-1.1,12.6-14.9,16-20
	c3.1-11.3,6.2-22.5,9.2-33.8c-2.2,1.1-4.3,2.2-6.5,3.3C50.7,107,49,138.2,41.5,137.1C40.5,136.9,39.5,136.8,38.6,136.6z"/>
<g>
	
		<radialGradient id="SVGID_3_" cx="33.0613" cy="162.3692" r="15.0799" fx="34.5177" fy="174.3407" gradientTransform="matrix(1.1991 0 0 0.6809 -9.1182 55.2287)" gradientUnits="userSpaceOnUse">
		<stop  offset="0" style="stop-color:#6B6B6B"/>
		<stop  offset="0.2807" style="stop-color:#5D5D5F"/>
		<stop  offset="0.354" style="stop-color:#545456"/>
		<stop  offset="0.4759" style="stop-color:#3B3B3C"/>
		<stop  offset="0.6306" style="stop-color:#121213"/>
		<stop  offset="0.6935" style="stop-color:#000000"/>
		<stop  offset="0.9946" style="stop-color:#3B3B3B"/>
	</radialGradient>
	<path class="st2" d="M21.8,157.1c-1.8-1.1-3.2,3.6-3.2,5c-0.1,1.1,0.7,3.3,1.1,4.4c1,3,3.5,4,6.4,3.8c3.1-0.1,7.4-0.3,12.5-0.5
		c6-0.1,3.5-8,3.5-8C41.1,160.2,23.7,158.3,21.8,157.1z"/>
	
		<radialGradient id="SVGID_4_" cx="32.2627" cy="154.6083" r="15.8352" fx="33.792" fy="167.1793" gradientTransform="matrix(1.1991 0 0 0.6809 -9.1182 52.1465)" gradientUnits="userSpaceOnUse">
		<stop  offset="0" style="stop-color:#6B6B6B"/>
		<stop  offset="0.1303" style="stop-color:#5D5D5F"/>
		<stop  offset="0.2302" style="stop-color:#545456"/>
		<stop  offset="0.3966" style="stop-color:#3B3B3C"/>
		<stop  offset="0.6076" style="stop-color:#121213"/>
		<stop  offset="0.6935" style="stop-color:#000000"/>
		<stop  offset="0.9946" style="stop-color:#3B3B3B"/>
	</radialGradient>
	<path class="st3" d="M21.5,151.7c-1.8-1.1-3.2,3.6-3.2,5c-0.1,1.1,0.4,3.5,1.1,4.4c1,1.5,3.5,4,6.4,3.8c3.1-0.1,9.3-1.1,12.3-1.9
		c1.1-0.3,3.9-1.2,4.4-1.6c0.8-0.7,1.6-3.9,1.6-3.9l-0.9-0.9C42.1,155,23.4,152.9,21.5,151.7z"/>
	
		<radialGradient id="SVGID_5_" cx="34.3322" cy="128.1948" r="27.5844" fx="32.5303" fy="100.6694" gradientTransform="matrix(1.1991 0 0 1.078 -9.1182 -9.2547)" gradientUnits="userSpaceOnUse">
		<stop  offset="0" style="stop-color:#6B6B6B"/>
		<stop  offset="0.1022" style="stop-color:#5D5D5F"/>
		<stop  offset="0.1155" style="stop-color:#545456"/>
		<stop  offset="0.1628" style="stop-color:#3A3A3B"/>
		<stop  offset="0.217" style="stop-color:#252525"/>
		<stop  offset="0.2803" style="stop-color:#141414"/>
		<stop  offset="0.3587" style="stop-color:#080809"/>
		<stop  offset="0.4687" style="stop-color:#020202"/>
		<stop  offset="0.7739" style="stop-color:#000000"/>
		<stop  offset="0.9946" style="stop-color:#3B3B3B"/>
	</radialGradient>
	<path class="st4" d="M29.5,109.4c-1.6,0-3.5,1-4.3,1.9c-1.9,2.1,0.4,8,1.1,10.5c0.5,2,1.2,6.1,1.2,8.2c0,1.9-0.6,5.3-1.4,7.4
		c-0.6,1.7-5.5,3.8-6.5,5.6c-1.2,2.1-2.1,7.1-1.1,9.3c0.3,0.7,1.3,1.6,2.6,2.2c2.3,1.2,9.8,0.6,19.1,4.2c4,1.5,7.7-5.3,5.7-8.3
		c-1.7-2.6-16.9-5.2-15.9-5.1c0,0,9.4,1.9,12.8,3.3c1.8-3-0.3-10.2-1.9-13.2c-1.7-3-3.2-5.6-4-9.4c-0.7-3.2,1.4-11.5-0.6-14.6
		C35.5,109.9,31.2,109.4,29.5,109.4z"/>
</g>
<g>
	
		<radialGradient id="SVGID_6_" cx="158.7113" cy="162.3692" r="15.0798" fx="160.1677" fy="174.3405" gradientTransform="matrix(-1.1991 0 0 0.6809 405.2159 55.2287)" gradientUnits="userSpaceOnUse">
		<stop  offset="0" style="stop-color:#6B6B6B"/>
		<stop  offset="0.2807" style="stop-color:#5D5D5F"/>
		<stop  offset="0.354" style="stop-color:#545456"/>
		<stop  offset="0.4759" style="stop-color:#3B3B3C"/>
		<stop  offset="0.6306" style="stop-color:#121213"/>
		<stop  offset="0.6935" style="stop-color:#000000"/>
		<stop  offset="0.9946" style="stop-color:#3B3B3B"/>
	</radialGradient>
	<path class="st5" d="M223.7,157.1c1.8-1.1,3.2,3.6,3.2,5c0.1,1.1-0.7,3.3-1.1,4.4c-1,3-3.5,4-6.4,3.8c-3.1-0.1-7.4-0.3-12.5-0.5
		c-6-0.1-3.5-8-3.5-8C204.3,160.2,221.7,158.3,223.7,157.1z"/>
	
		<radialGradient id="SVGID_7_" cx="157.9126" cy="154.6083" r="15.835" fx="159.4418" fy="167.1792" gradientTransform="matrix(-1.1991 0 0 0.6809 405.2159 52.1465)" gradientUnits="userSpaceOnUse">
		<stop  offset="0" style="stop-color:#6B6B6B"/>
		<stop  offset="0.1303" style="stop-color:#5D5D5F"/>
		<stop  offset="0.2302" style="stop-color:#545456"/>
		<stop  offset="0.3966" style="stop-color:#3B3B3C"/>
		<stop  offset="0.6076" style="stop-color:#121213"/>
		<stop  offset="0.6935" style="stop-color:#000000"/>
		<stop  offset="0.9946" style="stop-color:#3B3B3B"/>
	</radialGradient>
	<path class="st6" d="M224,151.7c1.8-1.1,3.2,3.6,3.2,5c0.1,1.1-0.4,3.5-1.1,4.4c-1,1.5-3.5,4-6.4,3.8c-3.1-0.1-9.3-1.1-12.3-1.9
		c-1.1-0.3-3.9-1.2-4.4-1.6c-0.8-0.7-1.6-3.9-1.6-3.9l0.9-0.9C203.4,155,222,152.9,224,151.7z"/>
	
		<radialGradient id="SVGID_8_" cx="159.9817" cy="128.1948" r="27.5844" fx="158.1797" fy="100.6694" gradientTransform="matrix(-1.1991 0 0 1.078 405.2159 -9.2547)" gradientUnits="userSpaceOnUse">
		<stop  offset="0" style="stop-color:#6B6B6B"/>
		<stop  offset="0.1022" style="stop-color:#5D5D5F"/>
		<stop  offset="0.1155" style="stop-color:#545456"/>
		<stop  offset="0.1628" style="stop-color:#3A3A3B"/>
		<stop  offset="0.217" style="stop-color:#252525"/>
		<stop  offset="0.2803" style="stop-color:#141414"/>
		<stop  offset="0.3587" style="stop-color:#080809"/>
		<stop  offset="0.4687" style="stop-color:#020202"/>
		<stop  offset="0.7739" style="stop-color:#000000"/>
		<stop  offset="0.9946" style="stop-color:#3B3B3B"/>
	</radialGradient>
	<path class="st7" d="M215.9,109.4c1.6,0,3.5,1,4.3,1.9c1.9,2.1-0.4,8-1.1,10.5c-0.5,2-1.2,6.1-1.2,8.2c0,1.9,0.6,5.3,1.4,7.4
		c0.6,1.7,5.5,3.8,6.5,5.6c1.2,2.1,2.1,7.1,1.1,9.3c-0.3,0.7-1.3,1.6-2.6,2.2c-2.3,1.2-9.8,0.6-19.1,4.2c-4,1.5-7.7-5.3-5.7-8.3
		c1.7-2.6,16.9-5.2,15.9-5.1c0,0-9.4,1.9-12.8,3.3c-1.8-3,0.3-10.2,1.9-13.2c1.7-3,3.2-5.6,4-9.4c0.7-3.2-1.4-11.5,0.6-14.6
		C209.9,109.9,214.2,109.4,215.9,109.4z"/>
</g>
<radialGradient id="SVGID_9_" cx="122.2867" cy="83.4751" r="140.3722" gradientUnits="userSpaceOnUse">
	<stop  offset="0" style="stop-color:#6B6B6B"/>
	<stop  offset="0.1022" style="stop-color:#5D5D5F"/>
	<stop  offset="0.1139" style="stop-color:#545456"/>
	<stop  offset="0.1555" style="stop-color:#3A3A3B"/>
	<stop  offset="0.2033" style="stop-color:#252525"/>
	<stop  offset="0.259" style="stop-color:#141414"/>
	<stop  offset="0.328" style="stop-color:#080809"/>
	<stop  offset="0.4248" style="stop-color:#020202"/>
	<stop  offset="0.6935" style="stop-color:#000000"/>
	<stop  offset="0.9946" style="stop-color:#3B3B3B"/>
</radialGradient>
<path class="st8" d="M60.5,228.7c-17.9-15.8-11.9-60.9-0.1-102.2C68.7,97.3,80,70.1,87.7,56.4C96,39.2,98.8,25.7,100,7.6
	c0.1-1.2,0.2-2.4,0.2-3.6c6.3,4.7,12.6,9.6,18.7,14.6c6.3,5.2,12.5,10.5,18.4,16.3c4,3.9,7.8,8,11.2,12.5
	c17.1,25.1,29.1,50.4,36.7,78.5c4.7,17.4,7.7,35.9,9.1,56c1.5,20.4-0.1,40.7-9.3,51.8c-2.2,2.6-4.8,4.7-7.8,6.2
	c-3.5,1.7-7.5,2.4-11.3,2.4c-4.2,0-8.2-0.8-12-2.4c-4.1-1.7-7.5-4.3-11.1-7c-3.7-2.8-7.4-5.8-11.4-7.8c-4.2-2.1-9.1-3.4-13.9-3.6
	c-4.9-0.2-9.5,0.8-13.9,2.7c-4.1,1.8-8,4.3-12,6.6c-3.7,2.1-7.3,3.8-11.5,4.2C73.4,235.6,65.5,233.1,60.5,228.7z"/>
<radialGradient id="SVGID_10_" cx="123.0038" cy="178.9272" r="90.9535" gradientUnits="userSpaceOnUse">
	<stop  offset="0.4892" style="stop-color:#FFFFFF"/>
	<stop  offset="0.5535" style="stop-color:#FAFAFA"/>
	<stop  offset="0.6266" style="stop-color:#EDEDED"/>
	<stop  offset="0.704" style="stop-color:#D6D6D6"/>
	<stop  offset="0.7845" style="stop-color:#B6B6B6"/>
	<stop  offset="0.8673" style="stop-color:#8D8D8D"/>
	<stop  offset="0.9509" style="stop-color:#5B5B5B"/>
	<stop  offset="1" style="stop-color:#3B3B3B"/>
</radialGradient>
<path class="st9" d="M60.5,228.1c-17.9-15.8-11.9-60.9-0.1-102.2c26.4-1.7,76.1,1,124.7-0.7c4.7,17.4,7.7,35.9,9.1,56
	c1.5,20.4-0.1,40.7-9.3,51.8c-2.2,2.6-4.8,4.7-7.8,6.2c-3.5,1.7-7.5,2.4-11.3,2.4c-4.2,0-8.2-0.8-12-2.4c-4.1-1.7-7.5-4.3-11.1-7
	c-3.7-2.8-7.4-5.8-11.4-7.8c-4.2-2.1-9.1-3.4-13.9-3.6c-4.9-0.2-9.5,0.8-13.9,2.7c-4.1,1.8-8,4.3-12,6.6c-3.7,2.1-7.3,3.8-11.5,4.2
	C73.4,235.1,65.5,232.6,60.5,228.1z"/>
<g>
	<path class="st10" d="M74.1,85.1c-13.7,2.2-21.3,8.7-27.5,22.1c1.4,9.1,8.5,4.5,12.3,12.9c2.1-8.1,4.4-14.2,6.5-22.3
		c-6.1,17.7-17.7,70.9-20.1,91.5c38.4-2.1,140.1,6.9,153.8-2.9c-1.1-12.7-9.8-67.1-19.8-83.4l0,0c1.5,1,6.8,15.9,6.9,16.3
		c3.5,0,8.6-1.6,14.4-4.8c-13.8-28.3-12.2-31.5-42.2-27c-7,0.7-14,1.5-21,2.2c1.5,24.4-37.8,20.1-35.4-1.4
		C92.7,87.2,83.4,86.2,74.1,85.1z"/>
	<path class="st11" d="M74.1,85.1c-13.7,2.2-21.3,8.7-27.5,22.1c1.4,9.1,8.5,4.5,12.3,12.9c2.1-8.1,4.4-14.2,6.5-22.3
		c-6.1,17.7-17.7,70.9-20.1,91.5c38.4-2.1,140.1,6.9,153.8-2.9c-1.1-12.7-9.8-67.1-19.8-83.4l0,0c1.5,1,6.8,15.9,6.9,16.3
		c3.5,0,8.6-1.6,14.4-4.8c-13.8-28.3-12.2-31.5-42.2-27c-7,0.7-14,1.5-21,2.2c1.5,24.4-37.8,20.1-35.4-1.4
		C92.7,87.2,83.4,86.2,74.1,85.1z"/>
</g>
<radialGradient id="SVGID_11_" cx="121.6348" cy="87.1658" r="32.1703" gradientUnits="userSpaceOnUse">
	<stop  offset="0" style="stop-color:#C72625"/>
	<stop  offset="0.88" style="stop-color:#991A1D"/>
	<stop  offset="1" style="stop-color:#542F0F"/>
</radialGradient>
<path class="st12" d="M121.6,114.8c13.9,0,25.2-11.3,25.2-25.2s-11.3-25.2-25.2-25.2S96.5,75.8,96.5,89.7S107.8,114.8,121.6,114.8z"
	/>
<g>
	<g>
		<polygon class="st13" points="147.9,117.3 149.4,117.3 149.4,117.6 148.8,117.6 148.8,119.2 148.4,119.2 148.4,117.6 147.9,117.6 
					"/>
		<polygon class="st13" points="149.7,117.3 150.3,117.3 150.8,118.6 151.3,117.3 151.9,117.3 151.9,119.2 151.5,119.2 151.5,117.7 
			151,119.2 150.7,119.2 150.1,117.7 150.1,119.2 149.7,119.2 		"/>
	</g>
	<path class="st13" d="M70.4,111.2h5.4v29.6c0,0,0.7,10.5-8.2,13.1l-2.5-2.9c0,0,5.4-1.3,5.4-9.7C70.5,132.8,70.4,111.2,70.4,111.2z
		"/>
	<path class="st13" d="M94.3,120.1c-5-1.7-12.6,0.9-13.4,1.7l0.8,3c0,0,3.8-1.5,7.1-1.5c3.3,0,5.7,0.5,5.4,6.7c0,0-5.4,0.2-7.5,0.7
		c-2.1,0.5-7.5,2.4-7,8.3c0.4,5.9,4.6,6.3,7.3,6.6c2.7,0.3,6.5-1.7,7.9-3.3l0.5,2.6h3.9v-18.1C99.1,126.8,99.3,121.7,94.3,120.1
		L94.3,120.1z M94.1,139.1L94.1,139.1c-5.4,4.7-9.4,2.2-9.4-1.2c0-3.4,2.2-3.9,3.5-4.3c1.3-0.4,5.9-0.4,5.9-0.4V139.1z"/>
	<path class="st13" d="M140.8,120.1c-5-1.7-12.6,0.9-13.4,1.7l0.8,3c0,0,3.8-1.5,7.1-1.5c3.3,0,5.7,0.5,5.4,6.7c0,0-5.4,0.2-7.5,0.7
		c-2.1,0.5-7.5,2.4-7,8.3c0.4,5.9,4.6,6.3,7.3,6.6c2.7,0.3,6.5-1.7,7.9-3.3l0.5,2.6h3.9v-18.1C145.6,126.8,145.9,121.7,140.8,120.1
		L140.8,120.1z M140.6,139.1L140.6,139.1c-5.4,4.7-9.4,2.2-9.4-1.2c0-3.4,2.2-3.9,3.5-4.3c1.2-0.4,5.9-0.4,5.9-0.4V139.1z"/>
	<path class="st13" d="M102.1,120.1h5.5c0,0,4.9,14.8,5.9,19.8c0,0,4.6-12.5,5-19.8h5.4c0,0-3,16.2-7.7,24.9h-6.3L102.1,120.1z"/>
</g>
<g>
	<path class="st14" d="M97.1,167.7l-1.8,0.1c-0.1-1.6-0.3-2.7-0.7-3.4c-0.4-0.7-1-1-1.9-1h-1.4v10.8c0,0.6,0.6,1,1.9,1v1.7h-8v-1.7
		c1.2,0,1.9-0.3,1.9-1v-10.8h-1.4c-0.8,0-1.4,0.3-1.8,1s-0.7,1.8-0.8,3.4l-1.8-0.1v-6.4h16V167.7z"/>
	<path class="st14" d="M101.9,171.5c0,1.3,0.2,2.2,0.7,2.9c0.4,0.6,1,1,1.9,1c0.7,0,1.3-0.2,1.8-0.5c0.5-0.4,0.9-0.9,1.1-1.6
		l1.8,0.2c-0.1,0.5-0.3,1-0.5,1.4c-0.2,0.5-0.6,0.9-1,1.2c-0.4,0.4-0.9,0.6-1.5,0.9c-0.6,0.2-1.2,0.3-2,0.3c-0.8,0-1.6-0.1-2.3-0.3
		c-0.7-0.2-1.4-0.5-1.9-0.9c-0.6-0.4-1-1-1.3-1.8c-0.3-0.7-0.5-1.6-0.5-2.8c0-0.9,0.1-1.7,0.4-2.4c0.3-0.7,0.6-1.3,1.1-1.8
		s1.1-0.9,1.8-1.2c0.7-0.3,1.6-0.4,2.5-0.4c1.9,0,3.3,0.5,4.2,1.4c0.9,0.9,1.4,2.4,1.4,4.4H101.9z M106.3,170.1c0-0.3,0-0.7-0.1-1
		c-0.1-0.4-0.2-0.7-0.4-0.9c-0.2-0.3-0.4-0.5-0.7-0.7c-0.3-0.2-0.6-0.3-1-0.3c-0.6,0-1.1,0.2-1.5,0.7c-0.4,0.5-0.6,1.2-0.7,2.2
		H106.3z"/>
	<path class="st14" d="M120.9,169.8l-1.7,0.1c-0.2-0.8-0.6-1.4-1.2-1.8c-0.6-0.4-1.4-0.5-2.2-0.5c-0.5,0-0.9,0.1-1.2,0.3
		c-0.3,0.2-0.4,0.4-0.4,0.7c0,0.4,0.2,0.6,0.5,0.8c0.4,0.2,0.8,0.3,1.4,0.5s1.1,0.3,1.8,0.4c0.6,0.1,1.2,0.3,1.8,0.6
		c0.5,0.3,1,0.6,1.4,1c0.4,0.4,0.5,1,0.5,1.7c0,0.6-0.1,1.1-0.3,1.5c-0.2,0.4-0.5,0.8-0.9,1c-0.4,0.3-0.8,0.5-1.3,0.6
		s-1,0.2-1.5,0.2c-1,0-1.7-0.1-2.3-0.2c-0.5-0.1-1-0.3-1.3-0.5c-0.1,0-0.2-0.1-0.3-0.1s-0.2-0.1-0.3-0.1c-0.3,0-0.4,0.2-0.5,0.7
		h-1.7V173c0.3,0,0.6,0,0.8-0.1c0.3,0,0.6,0,0.8,0c0.1,0.4,0.3,0.7,0.5,1c0.3,0.3,0.6,0.5,1,0.7c0.4,0.2,0.8,0.4,1.2,0.5
		c0.5,0.1,0.9,0.2,1.4,0.2c0.5,0,0.9-0.1,1.2-0.3c0.3-0.2,0.4-0.5,0.4-0.8c0-0.3-0.1-0.6-0.4-0.8c-0.3-0.2-0.6-0.3-1-0.4
		c-0.4-0.1-0.9-0.2-1.4-0.3c-0.5-0.1-1.1-0.2-1.6-0.4c-1-0.3-1.8-0.7-2.2-1.2s-0.7-1.2-0.7-2.1c0-1,0.3-1.7,1-2.3
		c0.7-0.6,1.6-0.9,2.9-0.9c0.5,0,1,0,1.4,0.1s0.8,0.2,1.1,0.3c0.3,0.1,0.6,0.2,0.8,0.3c0.2,0.1,0.4,0.1,0.5,0.1
		c0.2,0,0.3-0.1,0.4-0.2c0.1-0.1,0.2-0.3,0.2-0.5h1.6V169.8z"/>
	<path class="st14" d="M128.9,166.1h2.8l-0.1,1.8c-0.4-0.1-0.8-0.1-1.2-0.2c-0.4,0-0.9-0.1-1.4-0.1v6.7c0,0.3,0.1,0.6,0.2,0.7
		s0.3,0.2,0.6,0.2c0.3,0,0.5-0.1,0.6-0.3c0.1-0.2,0.2-0.4,0.2-0.7v-1h1.2v0.7c0,0.4-0.1,0.9-0.2,1.2c-0.1,0.4-0.3,0.7-0.5,0.9
		c-0.2,0.3-0.6,0.5-1,0.6c-0.4,0.1-0.9,0.2-1.5,0.2c-1.3,0-2.2-0.3-2.8-0.8c-0.5-0.6-0.8-1.3-0.8-2.3v-6.2h-1.8v-1.3
		c0.4,0,0.8-0.1,1.1-0.2s0.7-0.2,1-0.4s0.5-0.5,0.7-0.9s0.3-0.9,0.3-1.5V163l2.6-0.1V166.1z"/>
	<path class="st14" d="M137.1,171.5c0,1.3,0.2,2.2,0.7,2.9c0.4,0.6,1,1,1.9,1c0.7,0,1.3-0.2,1.8-0.5c0.5-0.4,0.9-0.9,1.1-1.6
		l1.8,0.2c-0.1,0.5-0.3,1-0.5,1.4c-0.2,0.5-0.6,0.9-1,1.2c-0.4,0.4-0.9,0.6-1.5,0.9s-1.2,0.3-2,0.3c-0.8,0-1.6-0.1-2.3-0.3
		c-0.7-0.2-1.4-0.5-1.9-0.9c-0.6-0.4-1-1-1.3-1.8c-0.3-0.7-0.5-1.6-0.5-2.8c0-0.9,0.1-1.7,0.4-2.4c0.3-0.7,0.6-1.3,1.1-1.8
		c0.5-0.5,1.1-0.9,1.8-1.2c0.7-0.3,1.6-0.4,2.5-0.4c1.9,0,3.3,0.5,4.2,1.4c0.9,0.9,1.4,2.4,1.4,4.4H137.1z M141.5,170.1
		c0-0.3,0-0.7-0.1-1c-0.1-0.4-0.2-0.7-0.4-0.9c-0.2-0.3-0.4-0.5-0.7-0.7s-0.6-0.3-1-0.3c-0.6,0-1.1,0.2-1.5,0.7s-0.6,1.2-0.7,2.2
		H141.5z"/>
	<path class="st14" d="M158.5,174.2c0,0.6,0.6,0.9,1.8,0.9v1.7h-4.9l-0.1-1.7c-0.3,0.7-0.9,1.2-1.6,1.6c-0.7,0.3-1.6,0.5-2.5,0.5
		c-0.7,0-1.3-0.1-1.9-0.3s-1.1-0.5-1.5-1c-0.4-0.5-0.8-1.1-1-1.8s-0.4-1.6-0.4-2.6c0-1,0.1-1.9,0.4-2.7c0.3-0.7,0.6-1.3,1.1-1.8
		c0.5-0.5,1-0.8,1.7-1c0.6-0.2,1.3-0.3,2.1-0.3c0.6,0,1.2,0.1,1.7,0.2c0.5,0.2,1,0.4,1.3,0.7v-3.4c0-0.6-0.6-0.9-1.8-0.9v-1.7h5.6
		V174.2z M152.6,167.6c-0.9,0-1.5,0.3-1.9,0.9c-0.4,0.6-0.6,1.5-0.6,2.8c0,1.2,0.2,2.2,0.6,2.8c0.4,0.6,1,0.9,1.9,0.9
		c0.9,0,1.5-0.3,1.8-0.9c0.3-0.6,0.5-1.5,0.5-2.8c0-1.2-0.2-2.2-0.5-2.8S153.5,167.6,152.6,167.6z"/>
	<path class="st14" d="M164.4,171.9c-0.1-1.5-0.2-2.8-0.3-3.7s-0.3-1.8-0.4-2.4c-0.1-0.6-0.3-1.2-0.4-1.6c-0.1-0.4-0.2-0.8-0.2-1.3
		c0-0.7,0.2-1.2,0.6-1.5c0.4-0.3,0.9-0.4,1.6-0.4c0.7,0,1.2,0.2,1.6,0.5c0.4,0.3,0.6,0.8,0.6,1.5c0,0.4,0,0.9-0.1,1.3
		c-0.1,0.4-0.2,0.9-0.4,1.6c-0.1,0.6-0.3,1.4-0.4,2.4c-0.1,1-0.3,2.2-0.4,3.7H164.4z M167.2,175.1c0,0.5-0.2,1-0.6,1.4
		c-0.4,0.4-0.8,0.6-1.3,0.6c-0.5,0-1-0.2-1.4-0.6c-0.4-0.4-0.6-0.8-0.6-1.4c0-0.5,0.2-1,0.6-1.3c0.4-0.4,0.8-0.6,1.4-0.6
		c0.5,0,1,0.2,1.3,0.6C167,174.1,167.2,174.6,167.2,175.1z"/>
</g>
<g>
	<path class="st15" d="M157.3,144.1c1.1,0.1,2.3,0,4-0.2c2.9-0.4,5.5-1.6,7.6-3.5c2.4-2.2,4.1-5.4,4.8-9.7h-0.2
		c-2,2.5-4.9,3.9-8.6,3.9c-6.6,0-10.8-4.9-10.8-11.1c0-6.9,5-12.9,12.4-12.9c7.4,0,12,6,12,15.3c0,8-2.7,13.6-6.3,17.1
		c-2.8,2.7-6.7,4.4-10.6,4.9c-1.8,0.3-3.4,0.3-4.5,0.3V144.1z M159.1,123.1c0,4.5,2.7,7.7,7,7.7c3.3,0,5.9-1.6,7.2-3.8
		c0.3-0.4,0.4-1,0.4-1.8c0-6.2-2.3-11-7.4-11C162.1,114.3,159.1,118,159.1,123.1z"/>
</g>
</svg>
